<svg width="62" height="62" viewBox="0 0 62 62" fill="none" xmlns="http://www.w3.org/2000/svg">
<path d="M39.8035 0.00057034C45.5597 0.0376012 50.9648 2.21463 55.0223 6.13143C59.0947 10.0632 61.3704 15.32 61.4295 20.9332C61.5064 28.2096 57.8005 34.9258 51.5174 38.8971C48.9784 40.5021 47.6779 43.422 48.282 46.1627C48.5004 47.1549 48.5951 48.1771 48.5633 49.2008C48.4649 52.3478 47.162 55.3331 44.8943 57.606C42.6392 59.8668 39.6293 61.2201 36.4207 61.4156C36.1493 61.4325 35.8777 61.44 35.6072 61.44C32.1611 61.4399 28.8432 60.1064 26.3983 57.7154C23.7442 55.1195 22.6443 51.2918 23.2176 46.6451C24.2802 38.0357 23.3041 31.7243 19.8494 24.8609C18.2122 21.6074 17.8341 18.2689 18.7557 15.2066C20.0593 10.8764 22.8294 6.98734 26.5555 4.25643C30.3967 1.44137 34.9729 -0.0293736 39.8035 0.00057034ZM39.7811 3.60018C35.7349 3.58002 31.8967 4.80578 28.6834 7.16073C25.584 9.43182 23.282 12.6583 22.2029 16.2447C21.3804 18.9779 22.2178 21.5591 23.0652 23.2428C27.784 32.6172 27.5966 40.5569 26.7908 47.0865C26.354 50.626 27.0685 53.3366 28.9149 55.1422C30.8259 57.0111 33.4809 57.9873 36.202 57.8219C38.5306 57.6803 40.7129 56.7008 42.3455 55.064C43.965 53.4408 44.8953 51.3183 44.9647 49.0885C44.9876 48.3628 44.9206 47.6383 44.7664 46.9371C44.301 44.825 44.5279 42.6483 45.4217 40.6412C46.2936 38.6837 47.7369 37.0283 49.5945 35.8541C54.8149 32.5545 57.8932 26.9904 57.8299 20.9713C57.7811 16.3293 55.8963 11.9786 52.5223 8.72127C49.1333 5.44992 44.6082 3.63118 39.7811 3.60018ZM11.1297 24.9791C11.821 24.2653 12.9612 24.2469 13.6746 24.9381C17.156 28.3111 19.073 32.8072 19.0731 37.5973C19.0731 42.3873 17.1564 46.8833 13.6756 50.2564C13.3259 50.5953 12.8736 50.7642 12.4227 50.7642C11.9525 50.7642 11.4827 50.5806 11.1297 50.2164C10.4381 49.5025 10.4559 48.3633 11.1697 47.6715C13.9452 44.9823 15.4734 41.4044 15.4734 37.5973C15.4734 33.7906 13.9451 30.2132 11.1697 27.524C10.4559 26.8322 10.4381 25.693 11.1297 24.9791ZM5.86895 30.0767C6.56036 29.3628 7.70048 29.3439 8.41485 30.0357C10.4955 32.0522 11.6413 34.738 11.6414 37.5973C11.6414 40.4571 10.4956 43.1432 8.41485 45.1598C8.06517 45.4982 7.61286 45.6666 7.16192 45.6666C6.6913 45.6666 6.22192 45.483 5.86895 45.1187C5.17732 44.4048 5.19517 43.2656 5.90899 42.5738C7.28431 41.2416 8.04083 39.4741 8.04083 37.5973C8.04076 35.7209 7.28424 33.9538 5.90899 32.6217C5.19517 31.9299 5.17732 30.7907 5.86895 30.0767ZM0.531063 33.7994C1.23653 33.0986 2.37618 33.1022 3.07696 33.8072C5.03806 35.7811 5.03806 38.9925 3.07696 40.9664C2.7254 41.3203 2.26227 41.4976 1.79962 41.4976C1.3408 41.4976 0.88209 41.3234 0.531063 40.9742C-0.17389 40.2734 -0.177515 39.1343 0.523251 38.4293C1.09417 37.8546 1.09417 36.919 0.523251 36.3443C-0.177517 35.6393 -0.173897 34.4997 0.531063 33.7994ZM39.657 8.52498C46.8123 8.52522 52.6336 14.1908 52.6336 21.1549C52.6335 22.149 51.827 22.9547 50.8328 22.9547C49.8392 22.9546 49.0331 22.1489 49.033 21.1549C49.033 16.1759 44.8272 12.1248 39.657 12.1246C35.2081 12.1246 31.4727 15.1251 30.5174 19.1344C31.6685 19.1775 32.8083 19.4644 33.8328 19.9879C36.5247 21.3633 38.2047 24.2717 38.0125 27.2252C37.8235 30.1323 35.8251 32.7946 33.0399 33.8502C32.8299 33.9294 32.614 33.9674 32.4022 33.9674C31.6756 33.9673 30.9914 33.5238 30.7186 32.8043C30.3667 31.8749 30.8341 30.8355 31.7635 30.483C33.2531 29.9186 34.3203 28.5156 34.4197 26.9918C34.5196 25.4515 33.6257 23.9252 32.1951 23.1939C31.2347 22.7036 30.0358 22.5949 28.9881 22.9029C28.444 23.0626 27.8563 22.9566 27.4022 22.6168C26.948 22.2769 26.6805 21.7425 26.6805 21.1754V21.1549C26.6805 14.1906 32.502 8.52498 39.657 8.52498Z" fill="#FF6565"/>
</svg>
