<svg width="30" height="30" viewBox="0 0 30 30" fill="none" xmlns="http://www.w3.org/2000/svg">
<path d="M15 0C23.2843 0 30 6.71573 30 15C30 23.2843 23.2843 30 15 30C6.71573 30 0 23.2843 0 15C0 6.71573 6.71573 0 15 0ZM14.999 7C12.828 7.00001 12.5552 7.00903 11.7021 7.04785C10.8507 7.08684 10.2693 7.22216 9.76074 7.41992C9.23457 7.62426 8.78745 7.89794 8.34277 8.34277C7.89797 8.78733 7.62487 9.23389 7.41992 9.75977C7.22163 10.2686 7.08618 10.8499 7.04785 11.7012C7.00969 12.5545 7 12.8274 7 15C7 17.1726 7.00919 17.4446 7.04785 18.2979C7.08701 19.1493 7.22233 19.7307 7.41992 20.2393C7.62442 20.7654 7.89794 21.2126 8.34277 21.6572C8.7872 22.1021 9.23403 22.3758 9.75977 22.5801C10.2687 22.7778 10.8499 22.9131 11.7012 22.9521C12.5545 22.991 12.8275 23 15 23C17.1726 23 17.4445 22.991 18.2979 22.9521C19.1494 22.9131 19.7313 22.7779 20.2402 22.5801C20.7661 22.3758 21.2119 22.102 21.6562 21.6572C22.1012 21.2127 22.3751 20.7661 22.5801 20.2402C22.7767 19.7314 22.9121 19.1492 22.9521 18.2979C22.9905 17.4447 23 17.1724 23 15C23 12.8274 22.9905 12.5545 22.9521 11.7012C22.9121 10.8496 22.7767 10.2684 22.5801 9.75977C22.3751 9.23359 22.1013 8.78745 21.6562 8.34277C21.2113 7.89787 20.7668 7.62407 20.2402 7.41992C19.7303 7.2221 19.1484 7.08687 18.2969 7.04785C17.4436 7.00902 17.1717 7 14.999 7ZM14.2832 8.44141C14.4962 8.44107 14.734 8.44141 15.001 8.44141C17.1367 8.44141 17.39 8.44898 18.2334 8.4873C19.0132 8.52296 19.4368 8.65321 19.7188 8.7627C20.0919 8.90764 20.358 9.08151 20.6377 9.36133C20.9177 9.64128 21.092 9.90801 21.2373 10.2812C21.3468 10.5629 21.4772 10.9868 21.5127 11.7666C21.551 12.6097 21.5586 12.8635 21.5586 14.998C21.5586 17.1326 21.551 17.3865 21.5127 18.2295C21.477 19.0093 21.3468 19.4332 21.2373 19.7148C21.0923 20.0881 20.9176 20.354 20.6377 20.6338C20.3578 20.9136 20.0921 21.0875 19.7188 21.2324C19.4371 21.3424 19.0132 21.4722 18.2334 21.5078C17.3902 21.5461 17.1367 21.5547 15.001 21.5547C12.8652 21.5547 12.6115 21.5461 11.7686 21.5078C10.9885 21.4718 10.5644 21.3409 10.2822 21.2314C9.90915 21.0865 9.64218 20.9137 9.3623 20.6338C9.08237 20.3538 8.90899 20.0873 8.76367 19.7139C8.65423 19.4322 8.52379 19.0088 8.48828 18.2295C8.44996 17.3863 8.44238 17.1322 8.44238 14.9961C8.44238 12.8602 8.44996 12.6077 8.48828 11.7646C8.52395 10.9851 8.65421 10.5613 8.76367 10.2793C8.9086 9.90622 9.08255 9.6392 9.3623 9.35938C9.64215 9.07956 9.90918 8.90602 10.2822 8.76074C10.5642 8.65075 10.9886 8.5202 11.7686 8.48438C12.5062 8.45106 12.7925 8.44112 14.2832 8.43945V8.44141ZM15.001 10.8916C12.7322 10.8916 10.8927 12.7312 10.8926 15C10.8927 17.2688 12.7322 19.1074 15.001 19.1074C17.2697 19.1073 19.1083 17.2687 19.1084 15C19.1083 12.7314 17.2696 10.8918 15.001 10.8916ZM15.001 12.333C16.4735 12.3331 17.6669 13.5273 17.667 15C17.667 16.4726 16.4736 17.6669 15.001 17.667C13.5281 17.667 12.334 16.4727 12.334 15C12.334 13.5272 13.5282 12.333 15.001 12.333ZM19.1729 9.77441C18.689 9.8236 18.3116 10.2326 18.3115 10.7295C18.3115 11.2595 18.7415 11.6895 19.2715 11.6895C19.8013 11.6893 20.2314 11.2594 20.2314 10.7295C20.2313 10.1997 19.8013 9.76972 19.2715 9.76953L19.1729 9.77441Z" fill="white"/>
</svg>
