<svg width="95" height="66" viewBox="0 0 95 66" fill="none" xmlns="http://www.w3.org/2000/svg">
<path d="M43.0088 0.0213013C44.1685 0.0213013 45.1092 0.96129 45.1094 2.12091V63.2781C45.1094 64.4379 44.1686 65.3787 43.0088 65.3787C41.8492 65.3785 40.9092 64.4378 40.9092 63.2781V2.12091C40.9094 0.961427 41.8493 0.0215226 43.0088 0.0213013ZM51.1914 5.22931C52.351 5.22948 53.291 6.16896 53.291 7.32892V58.0711C53.291 59.2308 52.351 60.1705 51.1914 60.1707C50.0316 60.1707 49.0909 59.2309 49.0908 58.0711V7.32892C49.0909 6.16916 50.0316 5.22931 51.1914 5.22931ZM34.8271 14.576C35.9869 14.576 36.9277 15.5168 36.9277 16.6766V48.7234C36.9277 49.8833 35.9869 50.824 34.8271 50.824C33.6676 50.8238 32.7275 49.8831 32.7275 48.7234V16.6766C32.7275 15.5169 33.6676 14.5762 34.8271 14.576ZM59.373 15.6443C60.5325 15.6445 61.4724 16.5845 61.4727 17.744V47.6551C61.4727 48.8148 60.5327 49.7555 59.373 49.7557C58.2132 49.7557 57.2725 48.8149 57.2725 47.6551V17.744C57.2727 16.5844 58.2134 15.6443 59.373 15.6443ZM26.6455 20.7186C27.8056 20.7186 28.7451 21.6591 28.7451 22.8192V42.5818C28.7449 43.7414 27.8051 44.6814 26.6455 44.6815C25.4859 44.6815 24.5452 43.7414 24.5449 42.5818V22.8192C24.5449 21.6594 25.4857 20.7186 26.6455 20.7186ZM67.5547 21.9197C68.7145 21.9197 69.6553 22.8605 69.6553 24.0203V41.3797C69.6551 42.5393 68.7144 43.4793 67.5547 43.4793C66.3951 43.4792 65.4553 42.5392 65.4551 41.3797V24.0203C65.4551 22.8606 66.395 21.9199 67.5547 21.9197ZM18.4639 24.1902C19.6236 24.1903 20.5635 25.1311 20.5635 26.2908V39.1092C20.5635 40.269 19.6236 41.2097 18.4639 41.2098C17.3041 41.2098 16.3643 40.269 16.3643 39.1092V26.2908C16.3643 25.131 17.3041 24.1902 18.4639 24.1902ZM75.7363 24.5916C76.8961 24.5916 77.8369 25.5315 77.8369 26.6912V38.7088C77.8369 39.8686 76.8961 40.8094 75.7363 40.8094C74.5767 40.8091 73.6367 39.8684 73.6367 38.7088V26.6912C73.6368 25.5316 74.5768 24.5919 75.7363 24.5916ZM2.09961 27.1287C3.25939 27.1287 4.20016 28.0683 4.2002 29.2283V36.1717C4.2002 37.3315 3.25941 38.2723 2.09961 38.2723C0.939989 38.2721 0 37.3314 0 36.1717V29.2283C3.68465e-05 28.0687 0.940012 27.1289 2.09961 27.1287ZM10.2822 27.1287C11.4422 27.1289 12.3818 28.0684 12.3818 29.2283V36.1717C12.3818 37.3314 11.4419 38.2721 10.2822 38.2723C9.12243 38.2723 8.18164 37.3315 8.18164 36.1717V29.2283C8.18168 28.0686 9.12245 27.1287 10.2822 27.1287ZM83.918 27.1287C85.0777 27.1287 86.0185 28.0683 86.0186 29.2283V36.1717C86.0186 37.3315 85.0778 38.2723 83.918 38.2723C82.7584 38.272 81.8184 37.3313 81.8184 36.1717V29.2283C81.8184 28.0687 82.7584 27.129 83.918 27.1287ZM92.0996 27.1287C93.2594 27.1287 94.2002 28.0683 94.2002 29.2283V36.1717C94.2002 37.3315 93.2594 38.2723 92.0996 38.2723C90.94 38.2721 90 37.3314 90 36.1717V29.2283C90 28.0687 90.94 27.1289 92.0996 27.1287Z" fill="#FF6565"/>
</svg>
