<svg width="30" height="30" viewBox="0 0 30 30" fill="none" xmlns="http://www.w3.org/2000/svg">
<path d="M15 0C23.2843 0 30 6.71573 30 15C30 23.2843 23.2843 30 15 30C6.71573 30 0 23.2843 0 15C0 6.71573 6.71573 0 15 0ZM18.4326 9.09961C17.8975 8.95135 17.0793 8.97213 16.5967 9.1416C15.2852 9.61828 14.4564 10.8472 14.5508 12.1924L14.582 12.7109L14.0576 12.6475C12.1481 12.4038 10.4799 11.5779 9.06348 10.1904L8.37109 9.50195L8.19238 10.0098C7.81468 11.1431 8.05595 12.3405 8.84277 13.1455C9.26246 13.5904 9.1683 13.6535 8.44434 13.3887C8.19288 13.3041 7.97262 13.241 7.95117 13.2725C7.87773 13.3466 8.12975 14.3111 8.3291 14.6924C8.60197 15.2219 9.1582 15.7407 9.7666 16.0479L10.2803 16.291L9.67188 16.3018C9.08437 16.3018 9.06304 16.3128 9.12598 16.5352C9.33579 17.2236 10.1647 17.9546 11.0879 18.2725L11.7393 18.4951L11.1719 18.834C10.3326 19.3211 9.34645 19.596 8.36035 19.6172C7.8889 19.6278 7.50115 19.6704 7.5 19.7021C7.5 19.8081 8.78045 20.4017 9.52539 20.6348C11.7601 21.3231 14.4148 21.0263 16.4082 19.8506C17.8246 19.0137 19.2404 17.3502 19.9014 15.7402C20.2581 14.8822 20.6152 13.3145 20.6152 12.5625C20.6153 12.0756 20.647 12.0121 21.2344 11.4297C21.5803 11.091 21.9054 10.7205 21.9688 10.6143C22.0737 10.413 22.0632 10.4128 21.5283 10.5928C20.6365 10.9105 20.5105 10.8683 20.9512 10.3916C21.2764 10.0526 21.6641 9.43788 21.6641 9.25781C21.6632 9.22659 21.5069 9.27997 21.3291 9.375C21.1402 9.48093 20.72 9.63904 20.4053 9.73438L19.8389 9.91504L19.3242 9.56543C19.0409 9.37481 18.6424 9.16315 18.4326 9.09961Z" fill="white"/>
</svg>
